<?xml version="1.0" encoding="UTF-8" standalone="no"?>
<!-- Created with Inkscape (http://www.inkscape.org/) -->

<svg
   version="1.1"
   id="svg2"
   width="6000"
   height="6000"
   viewBox="0 0 6000 6000"
   sodipodi:docname="shutterstock_1627297801.eps"
   xmlns:inkscape="http://www.inkscape.org/namespaces/inkscape"
   xmlns:sodipodi="http://sodipodi.sourceforge.net/DTD/sodipodi-0.dtd"
   xmlns="http://www.w3.org/2000/svg"
   xmlns:svg="http://www.w3.org/2000/svg">
  <defs
     id="defs6" />
  <sodipodi:namedview
     id="namedview4"
     pagecolor="#ffffff"
     bordercolor="#000000"
     borderopacity="0.25"
     inkscape:showpageshadow="2"
     inkscape:pageopacity="0.0"
     inkscape:pagecheckerboard="0"
     inkscape:deskcolor="#d1d1d1" />
  <g
     id="g8"
     inkscape:groupmode="layer"
     inkscape:label="ink_ext_XXXXXX"
     transform="matrix(1.3333333,0,0,-1.3333333,0,6000)">
    <g
       id="g10"
       transform="scale(0.1)">
      <path
         d="M 45000,0 H 0 V 45000 H 45000 V 0"
         style="fill:#000000;fill-opacity:1;fill-rule:nonzero;stroke:none"
         id="path12" />
      <path
         d="m 30195,25392.4 c -1897.5,995.6 -4467.7,2294.8 -6382.1,3249.6 -54.9,-484.4 -280.4,-916.8 -614.8,-1237.2 1902.6,-948.7 4460.5,-2241.5 6342.6,-3229.2 70.4,480.7 308.4,906.4 654.3,1216.8"
         style="fill:#f97923;fill-opacity:1;fill-rule:nonzero;stroke:none"
         id="path14" />
      <path
         d="m 32175.1,24321.3 c -87.7,50.5 -185,105.2 -289.2,163.2 -332.9,183.9 -752.1,64.4 -937.5,-268 -185.9,-333.4 -66.5,-754.3 266.8,-940.1 97.6,-54.4 189.5,-106.2 272.1,-153.7 1679.3,-963.8 2031.9,-2470.5 2031.9,-3564.8 0,-2164.9 -1567,-3926 -3492.8,-3926 H 16715.6 l 3619.8,4711 1853.2,-2411.8 c 232.6,-302.4 666.5,-359.3 969,-126.8 61.1,46.9 109.1,103.5 149.6,163.9 l 2756.5,3587.1 78.8,102.8 2470.4,-3215.2 h -1666.4 l -805.2,1048.6 -871.5,-1134.3 794.7,-1033.1 c 126.6,-159.9 322,-263.2 541.9,-263.2 h 3408.9 c 263.1,0 503.5,150 619.8,385.8 116.3,236.1 88.5,517.9 -71.8,726.3 l -3872.9,5040.1 c -130.6,170.2 -333.2,269.9 -547.9,269.9 -214.7,0 -417.1,-99.7 -547.8,-269.9 l -2860.8,-3723 -1850.5,2407.8 c -130.8,170.2 -333.3,270.1 -548,270.1 -214.5,0 -417.1,-99.9 -547.9,-270.1 l -4992.7,-6497.2 c -232.5,-302.9 -173.1,-733.2 127,-969.1 189.6,-148.9 464.4,-181.6 1077.1,-181.6 h 14027.5 c 2687.9,0 4874.8,2381.2 4874.8,5307.9 0,2063 -968.1,3754.6 -2726.1,4763.4 z m -11839.7,457.5 -7076,-9209.1 c -136.1,-176.9 -341.1,-269.8 -548.4,-269.8 -142.3,0 -285.2,44.9 -408.1,135 -2.5,1.5 -5.1,1.9 -7.6,3.7 -1001.9,754.9 -2196.5,2200 -2196.5,4798.4 0,1562.7 869,3850.9 2324.2,6121.2 1362.3,2124.8 3034.5,4391.8 5647.1,4391.8 963.7,0 1934.8,-263.3 3247.3,-880.6 158.1,-74.3 430.6,-206.4 787.6,-381.6 335.7,-170.8 473.6,-579.9 307.3,-919.3 -120,-244.8 -365.6,-387.2 -621,-387.2 -102.1,0 -205.7,22.8 -303.6,70.8 0,-0.2 -0.1,-0.2 -0.1,-0.4 -342.8,168.1 -604.9,295 -758.3,367.2 -1116.6,525.2 -1911.8,749.2 -2659.2,749.2 -1722.8,0 -3038.4,-1501.5 -4483.8,-3755.8 -1298.7,-2026 -2105.5,-4085.7 -2105.5,-5375.3 0,-1329.7 391.3,-2433.2 1136.8,-3234.1 l 7169.9,9331 c 130.8,170.2 333.4,269.9 547.9,269.9 214.7,0 417.2,-99.7 548,-269.9 l 2723,-3543.5 -871.4,-1134.2 -2399.6,3122.6"
         style="fill:#ffffff;fill-opacity:1;fill-rule:nonzero;stroke:none"
         id="path16" />
    </g>
  </g>
</svg>
